<svg width="124" height="37" viewBox="0 0 124 37" fill="none" xmlns="http://www.w3.org/2000/svg">
<rect width="36.083" height="36.083" rx="5.10265" fill="url(#paint0_linear_425_8929)"/>
<path opacity="0.5" fill-rule="evenodd" clip-rule="evenodd" d="M14.0756 27.0698C11.2294 24.9475 7.8877 22.4536 7.8877 18.1324C7.8877 13.362 13.4609 9.97869 18.0208 14.5656C22.5806 9.97869 28.1538 13.362 28.1538 18.1324C28.1538 22.4536 24.8122 24.9475 21.9659 27.0698C21.6709 27.2905 21.3804 27.5066 21.0989 27.7205C20.0474 28.5233 19.0341 29.2799 18.0208 29.2799C17.0074 29.2799 15.9941 28.5233 14.9426 27.7205C14.6611 27.5066 14.3706 27.2905 14.0756 27.0698Z" fill="white"/>
<path d="M18.0208 17.1769C18.2447 17.1769 18.4595 17.2659 18.6179 17.4242C18.7762 17.5826 18.8652 17.7974 18.8652 18.0213V20.8361C18.8652 21.06 18.7762 21.2748 18.6179 21.4332C18.4595 21.5915 18.2447 21.6805 18.0208 21.6805C17.7968 21.6805 17.582 21.5915 17.4237 21.4332C17.2653 21.2748 17.1764 21.06 17.1764 20.8361V18.0213C17.1764 17.7974 17.2653 17.5826 17.4237 17.4242C17.582 17.2659 17.7968 17.1769 18.0208 17.1769ZM13.2357 12.3919C13.2357 10.6974 13.739 9.53322 14.5181 8.789C15.3029 8.0369 16.4772 7.60681 18.0208 7.60681C19.5632 7.60681 20.7387 8.0369 21.5234 8.789C22.3026 9.53322 22.8058 10.6974 22.8058 12.3919C23.3829 12.4056 23.9536 12.5164 24.4947 12.7173V12.3919C24.4947 10.3551 23.8799 8.70456 22.691 7.56741C21.5088 6.43701 19.8695 5.91797 18.0208 5.91797C16.1721 5.91797 14.5327 6.43701 13.3506 7.56741C12.1616 8.70456 11.5469 10.3551 11.5469 12.3919V12.7184C12.0878 12.5167 12.6586 12.4064 13.2357 12.3919Z" fill="white"/>
<path d="M52.6931 10.1849H51.7349C51.2523 10.1849 50.9116 10.2914 50.7129 10.5043C50.5141 10.703 50.4148 11.0366 50.4148 11.5051V12.3994L52.6931 12.3355V14.2092L50.4148 14.1241V23.3225H47.9235V14.1454L46.2627 14.2092V12.3355L47.9235 12.3994V11.5689C47.9235 9.29772 49.0591 8.16211 51.3304 8.16211H52.6931V10.1849Z" fill="#00ABE4"/>
<path d="M59.0599 11.9948C59.3012 11.9948 59.5354 12.0161 59.7626 12.0587V14.4222C59.3367 14.3938 59.1167 14.3796 59.1025 14.3796C58.2224 14.3796 57.5126 14.6706 56.9732 15.2526C56.448 15.8204 56.1783 16.6224 56.1641 17.6587V23.3225H53.6728V12.3355H56.0576L56.015 14.337C56.597 12.7755 57.612 11.9948 59.0599 11.9948Z" fill="#00ABE4"/>
<path d="M70.7577 17.8929V18.5104H62.6452C62.7019 19.5182 62.9858 20.299 63.4969 20.8526C64.0221 21.392 64.7248 21.6617 65.6049 21.6617C66.8682 21.6617 67.7199 21.0655 68.16 19.8731L70.5448 20.086C70.2041 21.2358 69.6008 22.1159 68.7349 22.7263C67.8832 23.3367 66.8398 23.6419 65.6049 23.6419C63.9014 23.6419 62.56 23.0954 61.5805 22.0024C60.6011 20.9235 60.1113 19.5182 60.1113 17.7864C60.1113 16.1114 60.5869 14.7345 61.5379 13.6556C62.5032 12.591 63.795 12.0587 65.4132 12.0587C67.0173 12.0587 68.309 12.5768 69.2885 13.613C70.268 14.6635 70.7577 16.0901 70.7577 17.8929ZM67.3934 14.699C66.9108 14.2163 66.272 13.975 65.4771 13.975C64.668 13.975 64.0221 14.2163 63.5395 14.699C63.0284 15.1958 62.7374 15.8914 62.6665 16.7857H68.2664C68.1529 15.863 67.8619 15.1674 67.3934 14.699Z" fill="#00ABE4"/>
<path d="M78.0481 12.0587C79.1979 12.0587 80.0922 12.3923 80.7309 13.0594C81.3839 13.7266 81.7104 14.6493 81.7104 15.8275V23.3225H79.2192V16.3598C79.2192 14.9687 78.5875 14.2731 77.3241 14.2731C76.5434 14.2731 75.9117 14.5428 75.4291 15.0822C74.9464 15.6075 74.7051 16.3598 74.7051 17.3393V23.3225H72.2139V12.3355H74.5986L74.6412 13.8686C75.4078 12.662 76.5434 12.0587 78.0481 12.0587Z" fill="#00ABE4"/>
<path d="M92.002 13.8901L92.0446 12.3357H94.3016V23.2163C94.3016 24.7636 93.8474 25.9347 92.9389 26.7296C92.0304 27.5245 90.7528 27.922 89.1062 27.922C87.6583 27.922 86.5156 27.6239 85.678 27.0277C84.8547 26.4457 84.3792 25.5869 84.2514 24.4513H86.5936C86.8066 25.5017 87.637 26.027 89.0849 26.027C90.0501 26.027 90.7457 25.8069 91.1716 25.3669C91.6116 24.941 91.8316 24.2597 91.8316 23.3228V21.8749C91.0651 22.9111 89.9934 23.4292 88.6164 23.4292C87.1969 23.4292 86.0542 22.8898 85.1883 21.811C84.3082 20.7322 83.8682 19.341 83.8682 17.6376C83.8682 15.9484 84.3082 14.5999 85.1883 13.592C86.0684 12.5842 87.204 12.0802 88.5951 12.0802C90.1424 12.0802 91.278 12.6835 92.002 13.8901ZM89.0636 21.3C89.8869 21.3 90.5612 20.9664 91.0864 20.2992C91.6116 19.632 91.8742 18.7519 91.8742 17.6589C91.8742 16.5375 91.6187 15.6716 91.1077 15.0612C90.5683 14.4366 89.8869 14.1243 89.0636 14.1243C88.2261 14.1243 87.5589 14.4366 87.0621 15.0612C86.5652 15.6858 86.3168 16.5446 86.3168 17.6376C86.3168 18.759 86.5652 19.6533 87.0621 20.3205C87.5589 20.9735 88.2261 21.3 89.0636 21.3Z" fill="#EEF2F6"/>
<path d="M105.82 23.3228H103.307C103.165 22.7408 103.073 22.3149 103.03 22.0452C102.193 23.0957 100.993 23.6209 99.4319 23.6209C98.2821 23.6209 97.3665 23.3299 96.6852 22.7479C96.018 22.1517 95.6844 21.3497 95.6844 20.3418C95.6844 18.4964 96.8626 17.375 99.219 16.9775L102.647 16.4026C102.704 16.3884 102.803 16.3601 102.945 16.3175V15.3593C102.945 14.394 102.221 13.9114 100.773 13.9114C100.078 13.9114 99.5526 14.0463 99.1977 14.316C98.8428 14.5857 98.6299 15.0186 98.5589 15.6148L96.2167 15.5935C96.4296 13.2371 97.9698 12.0589 100.837 12.0589C103.861 12.0589 105.373 13.3223 105.373 15.849V20.7889C105.373 21.6123 105.522 22.4569 105.82 23.3228ZM100.049 21.7471C100.873 21.7471 101.561 21.5058 102.115 21.0232C102.668 20.5405 102.945 19.9372 102.945 19.2133V18.0635L99.9004 18.5958C98.7222 18.8087 98.1331 19.3481 98.1331 20.214C98.1331 20.6967 98.3034 21.0728 98.6441 21.3426C98.9848 21.6123 99.4532 21.7471 100.049 21.7471Z" fill="#EEF2F6"/>
<path d="M112.843 14.2095L110.586 14.1243V20.2353C110.586 20.6328 110.664 20.9096 110.82 21.0657C110.977 21.2219 111.246 21.3 111.63 21.3H112.843V23.3228H110.863C109.884 23.3228 109.174 23.1099 108.734 22.684C108.308 22.2439 108.095 21.5342 108.095 20.5547V14.1456L106.519 14.2095V12.3357L108.095 12.3996V8.9502H110.586V12.3996L112.843 12.3357V14.2095Z" fill="#EEF2F6"/>
<path d="M124 17.8931V18.5106H115.887C115.944 19.5185 116.228 20.2992 116.739 20.8528C117.264 21.3922 117.967 21.6619 118.847 21.6619C120.11 21.6619 120.962 21.0657 121.402 19.8734L123.787 20.0863C123.446 21.2361 122.843 22.1162 121.977 22.7266C121.125 23.337 120.082 23.6422 118.847 23.6422C117.144 23.6422 115.802 23.0957 114.823 22.0026C113.843 20.9238 113.354 19.5185 113.354 17.7867C113.354 16.1116 113.829 14.7347 114.78 13.6559C115.745 12.5912 117.037 12.0589 118.655 12.0589C120.26 12.0589 121.551 12.5771 122.531 13.6133C123.51 14.6637 124 16.0904 124 17.8931ZM120.636 14.6992C120.153 14.2166 119.514 13.9753 118.719 13.9753C117.91 13.9753 117.264 14.2166 116.782 14.6992C116.271 15.1961 115.98 15.8916 115.909 16.7859H121.509C121.395 15.8632 121.104 15.1677 120.636 14.6992Z" fill="#EEF2F6"/>
<defs>
<linearGradient id="paint0_linear_425_8929" x1="18.0415" y1="11.2076" x2="18.0415" y2="36.083" gradientUnits="userSpaceOnUse">
<stop stop-color="#00ABE4"/>
<stop offset="1" stop-color="#00A0E4"/>
</linearGradient>
</defs>
</svg>
